# xmcd
#
# Track frame offsets:
#	150
#	18251
#	48178
#	68066
#	93466
#	105911
#	131008
#	148561
#	164432
#	193131
#	238181
#	255430
#	270338
#
# Disc length: 4109 seconds
#
# Revision: 1
# Processed by: cddbd v1.5.2PL0 Copyright (c) Steve Scherf et al.
# Submitted via: audiograbber 1.83.01
#
DISCID=aa100b0d
DTITLE=The Hoax - Humdinger (Special Edition)
DYEAR=2008
DGENRE=Blues
TTITLE0=High Expectations
TTITLE1=Feeding Time
TTITLE2=Last Man Down
TTITLE3=Superstition
TTITLE4=Something Out Of Nothing
TTITLE5=Groove Breaker
TTITLE6=I Want To Be Loved
TTITLE7=Long Way Home
TTITLE8=Bones
TTITLE9=Don't Shake My Hand
TTITLE10=C'mon Susie
TTITLE11=Break My Groove
TTITLE12=The Night Will Come
EXTD=
EXTT0=
EXTT1=
EXTT2=
EXTT3=
EXTT4=
EXTT5=
EXTT6=
EXTT7=
EXTT8=
EXTT9=
EXTT10=
EXTT11=
EXTT12=
PLAYORDER=
